# xmcd CD database file
#
# Track frame offsets:
#	150
#	14182
#	27556
#	37805
#	52546
#	66517
#	80641
#	93315
#	107584
#	118685
#	126636
#	140866
#
# Disc length: 2079 seconds
#
# Revision: 0
# Processed by: cddbd v1.5.2PL0 Copyright (c) Steve Scherf et al.
# Submitted via: CDex 1.70beta2
#
DISCID=ad081d0c
DTITLE=Various Artist - Great American Romantic Standards - Dance With Me
DYEAR=2007
DGENRE=Jazz
TTITLE0=Wanted - Perry Como
TTITLE1=People Will Say We're In Love - Bing Crosby (with Trudy Erwin)
TTITLE2=Gee Baby, Ain't I Good To You - Billie Holiday
TTITLE3=(I've Got A Gal In) Kalamazoo - Glenn Miller (featuring Marion Huton, Tex Beneke and the Modernaires)
TTITLE4=If - Perry Como
TTITLE5=Taking A Chance On Love - Benny Goodman (featuring Helen Ward)
TTITLE6=You're Getting To Be A Habit With Me - Bing Crosby
TTITLE7=Thanks For The Memory - Bob Hope and Shirley Ross
TTITLE8=Makin'Whoopee - Doris Day
TTITLE9=I've Got My Love To Keep Me Warm - Frank Sinatra
TTITLE10=My Old Flame - Rosemary Clooney
TTITLE11=He's My Guy - Ella Fitzgerald
EXTD=YEAR: 2007
EXTT0=
EXTT1=
EXTT2=
EXTT3=
EXTT4=
EXTT5=
EXTT6=
EXTT7=
EXTT8=
EXTT9=
EXTT10=
EXTT11=
PLAYORDER=
